<svg width="259" height="115" viewBox="0 0 259 115" fill="none" xmlns="http://www.w3.org/2000/svg">
<g clip-path="url(#paint0_diamond_2_23_clip_path)" data-figma-skip-parse="true"><g transform="matrix(0.110549 -0.0328571 0.074 0.249102 101.705 58.1319)"><rect x="0" y="0" width="1461.74" height="387.008" fill="url(#paint0_diamond_2_23)" opacity="1" shape-rendering="crispEdges"/><rect x="0" y="0" width="1461.74" height="387.008" transform="scale(1 -1)" fill="url(#paint0_diamond_2_23)" opacity="1" shape-rendering="crispEdges"/><rect x="0" y="0" width="1461.74" height="387.008" transform="scale(-1 1)" fill="url(#paint0_diamond_2_23)" opacity="1" shape-rendering="crispEdges"/><rect x="0" y="0" width="1461.74" height="387.008" transform="scale(-1)" fill="url(#paint0_diamond_2_23)" opacity="1" shape-rendering="crispEdges"/></g></g><path d="M7.59055 92V22.9091H18.0149V52.9339H52.4592V22.9091H62.9173V92H52.4592V61.8739H18.0149V92H7.59055ZM99.6218 93.0458C94.5165 93.0458 90.1196 91.955 86.4311 89.7734C82.7652 87.5694 79.9313 84.4769 77.9297 80.4961C75.9505 76.4928 74.9609 71.8035 74.9609 66.4283C74.9609 61.1205 75.9505 56.4425 77.9297 52.3942C79.9313 48.3459 82.7202 45.186 86.2962 42.9144C89.8947 40.6429 94.1004 39.5071 98.9134 39.5071C101.837 39.5071 104.671 39.9906 107.415 40.9577C110.159 41.9248 112.621 43.4429 114.803 45.5121C116.984 47.5812 118.705 50.2688 119.964 53.5749C121.224 56.8585 121.854 60.8506 121.854 65.5511V69.1271H80.6623V61.5703H111.969C111.969 58.9164 111.429 56.5662 110.35 54.5195C109.27 52.4504 107.752 50.8198 105.795 49.6278C103.861 48.4358 101.59 47.8398 98.9808 47.8398C96.147 47.8398 93.6731 48.537 91.559 49.9315C89.4673 51.3034 87.848 53.1026 86.701 55.3292C85.5765 57.5333 85.0142 59.9285 85.0142 62.5149V68.4187C85.0142 71.8822 85.6214 74.8285 86.8359 77.2575C88.0729 79.6864 89.7934 81.5419 91.9975 82.8239C94.2016 84.0833 96.7768 84.7131 99.723 84.7131C101.635 84.7131 103.378 84.4432 104.952 83.9034C106.526 83.3411 107.887 82.509 109.034 81.407C110.181 80.3049 111.058 78.9442 111.665 77.3249L121.213 79.0455C120.448 81.8568 119.076 84.3195 117.097 86.4336C115.14 88.5252 112.678 90.1558 109.709 91.3253C106.763 92.4723 103.4 93.0458 99.6218 93.0458ZM143.133 22.9091V92H133.046V22.9091H143.133ZM166.79 22.9091V92H156.703V22.9091H166.79ZM202.187 93.0458C197.329 93.0458 193.09 91.9325 189.469 89.706C185.848 87.4794 183.036 84.3645 181.035 80.3611C179.033 76.3578 178.032 71.6798 178.032 66.3271C178.032 60.9518 179.033 56.2513 181.035 52.2255C183.036 48.1997 185.848 45.0735 189.469 42.8469C193.09 40.6204 197.329 39.5071 202.187 39.5071C207.045 39.5071 211.284 40.6204 214.905 42.8469C218.526 45.0735 221.338 48.1997 223.339 52.2255C225.341 56.2513 226.342 60.9518 226.342 66.3271C226.342 71.6798 225.341 76.3578 223.339 80.3611C221.338 84.3645 218.526 87.4794 214.905 89.706C211.284 91.9325 207.045 93.0458 202.187 93.0458ZM202.221 84.5781C205.369 84.5781 207.978 83.746 210.047 82.0817C212.117 80.4174 213.646 78.2021 214.636 75.4357C215.648 72.6694 216.154 69.6219 216.154 66.2933C216.154 62.9872 215.648 59.951 214.636 57.1847C213.646 54.3958 212.117 52.158 210.047 50.4712C207.978 48.7844 205.369 47.941 202.221 47.941C199.05 47.941 196.418 48.7844 194.327 50.4712C192.257 52.158 190.717 54.3958 189.705 57.1847C188.715 59.951 188.22 62.9872 188.22 66.2933C188.22 69.6219 188.715 72.6694 189.705 75.4357C190.717 78.2021 192.257 80.4174 194.327 82.0817C196.418 83.746 199.05 84.5781 202.221 84.5781ZM250.32 22.9091L249.442 72.1296H240.098L239.221 22.9091H250.32ZM244.787 92.641C242.92 92.641 241.323 91.9888 239.996 90.6843C238.67 89.3574 238.017 87.7605 238.04 85.8938C238.017 84.0496 238.67 82.4753 239.996 81.1708C241.323 79.8439 242.92 79.1804 244.787 79.1804C246.609 79.1804 248.183 79.8439 249.51 81.1708C250.837 82.4753 251.512 84.0496 251.534 85.8938C251.512 87.1308 251.185 88.2666 250.556 89.3011C249.949 90.3132 249.139 91.1229 248.127 91.7301C247.115 92.3374 246.001 92.641 244.787 92.641Z" data-figma-gradient-fill="{&#34;type&#34;:&#34;GRADIENT_DIAMOND&#34;,&#34;stops&#34;:[{&#34;color&#34;:{&#34;r&#34;:0.37124997377395630,&#34;g&#34;:0.084375031292438507,&#34;b&#34;:0.56250,&#34;a&#34;:1.0},&#34;position&#34;:0.40865385532379150},{&#34;color&#34;:{&#34;r&#34;:0.67945998907089233,&#34;g&#34;:0.42220789194107056,&#34;b&#34;:0.85096156597137451,&#34;a&#34;:1.0},&#34;position&#34;:1.0}],&#34;stopsVar&#34;:[{&#34;color&#34;:{&#34;r&#34;:0.37124997377395630,&#34;g&#34;:0.084375031292438507,&#34;b&#34;:0.56250,&#34;a&#34;:1.0},&#34;position&#34;:0.40865385532379150},{&#34;color&#34;:{&#34;r&#34;:0.67945998907089233,&#34;g&#34;:0.42220789194107056,&#34;b&#34;:0.85096156597137451,&#34;a&#34;:1.0},&#34;position&#34;:1.0}],&#34;transform&#34;:{&#34;m00&#34;:221.09756469726562,&#34;m01&#34;:148.0,&#34;m02&#34;:-82.843910217285156,&#34;m10&#34;:-65.714286804199219,&#34;m11&#34;:498.20370483398438,&#34;m12&#34;:-158.11283874511719},&#34;opacity&#34;:1.0,&#34;blendMode&#34;:&#34;NORMAL&#34;,&#34;visible&#34;:true}"/>
<defs>
<clipPath id="paint0_diamond_2_23_clip_path"><path d="M7.59055 92V22.9091H18.0149V52.9339H52.4592V22.9091H62.9173V92H52.4592V61.8739H18.0149V92H7.59055ZM99.6218 93.0458C94.5165 93.0458 90.1196 91.955 86.4311 89.7734C82.7652 87.5694 79.9313 84.4769 77.9297 80.4961C75.9505 76.4928 74.9609 71.8035 74.9609 66.4283C74.9609 61.1205 75.9505 56.4425 77.9297 52.3942C79.9313 48.3459 82.7202 45.186 86.2962 42.9144C89.8947 40.6429 94.1004 39.5071 98.9134 39.5071C101.837 39.5071 104.671 39.9906 107.415 40.9577C110.159 41.9248 112.621 43.4429 114.803 45.5121C116.984 47.5812 118.705 50.2688 119.964 53.5749C121.224 56.8585 121.854 60.8506 121.854 65.5511V69.1271H80.6623V61.5703H111.969C111.969 58.9164 111.429 56.5662 110.35 54.5195C109.27 52.4504 107.752 50.8198 105.795 49.6278C103.861 48.4358 101.59 47.8398 98.9808 47.8398C96.147 47.8398 93.6731 48.537 91.559 49.9315C89.4673 51.3034 87.848 53.1026 86.701 55.3292C85.5765 57.5333 85.0142 59.9285 85.0142 62.5149V68.4187C85.0142 71.8822 85.6214 74.8285 86.8359 77.2575C88.0729 79.6864 89.7934 81.5419 91.9975 82.8239C94.2016 84.0833 96.7768 84.7131 99.723 84.7131C101.635 84.7131 103.378 84.4432 104.952 83.9034C106.526 83.3411 107.887 82.509 109.034 81.407C110.181 80.3049 111.058 78.9442 111.665 77.3249L121.213 79.0455C120.448 81.8568 119.076 84.3195 117.097 86.4336C115.14 88.5252 112.678 90.1558 109.709 91.3253C106.763 92.4723 103.4 93.0458 99.6218 93.0458ZM143.133 22.9091V92H133.046V22.9091H143.133ZM166.79 22.9091V92H156.703V22.9091H166.79ZM202.187 93.0458C197.329 93.0458 193.09 91.9325 189.469 89.706C185.848 87.4794 183.036 84.3645 181.035 80.3611C179.033 76.3578 178.032 71.6798 178.032 66.3271C178.032 60.9518 179.033 56.2513 181.035 52.2255C183.036 48.1997 185.848 45.0735 189.469 42.8469C193.09 40.6204 197.329 39.5071 202.187 39.5071C207.045 39.5071 211.284 40.6204 214.905 42.8469C218.526 45.0735 221.338 48.1997 223.339 52.2255C225.341 56.2513 226.342 60.9518 226.342 66.3271C226.342 71.6798 225.341 76.3578 223.339 80.3611C221.338 84.3645 218.526 87.4794 214.905 89.706C211.284 91.9325 207.045 93.0458 202.187 93.0458ZM202.221 84.5781C205.369 84.5781 207.978 83.746 210.047 82.0817C212.117 80.4174 213.646 78.2021 214.636 75.4357C215.648 72.6694 216.154 69.6219 216.154 66.2933C216.154 62.9872 215.648 59.951 214.636 57.1847C213.646 54.3958 212.117 52.158 210.047 50.4712C207.978 48.7844 205.369 47.941 202.221 47.941C199.05 47.941 196.418 48.7844 194.327 50.4712C192.257 52.158 190.717 54.3958 189.705 57.1847C188.715 59.951 188.22 62.9872 188.22 66.2933C188.22 69.6219 188.715 72.6694 189.705 75.4357C190.717 78.2021 192.257 80.4174 194.327 82.0817C196.418 83.746 199.05 84.5781 202.221 84.5781ZM250.32 22.9091L249.442 72.1296H240.098L239.221 22.9091H250.32ZM244.787 92.641C242.92 92.641 241.323 91.9888 239.996 90.6843C238.67 89.3574 238.017 87.7605 238.04 85.8938C238.017 84.0496 238.67 82.4753 239.996 81.1708C241.323 79.8439 242.92 79.1804 244.787 79.1804C246.609 79.1804 248.183 79.8439 249.51 81.1708C250.837 82.4753 251.512 84.0496 251.534 85.8938C251.512 87.1308 251.185 88.2666 250.556 89.3011C249.949 90.3132 249.139 91.1229 248.127 91.7301C247.115 92.3374 246.001 92.641 244.787 92.641Z"/></clipPath><linearGradient id="paint0_diamond_2_23" x1="0" y1="0" x2="500" y2="500" gradientUnits="userSpaceOnUse">
<stop offset="0.408654" stop-color="#5F168F"/>
<stop offset="1" stop-color="#AD6CD9"/>
</linearGradient>
</defs>
</svg>
